# xmcd CD database file
#
# Track frame offsets:
#	150
#	20082
#	41912
#	60494
#	84327
#	97638
#	120762
#
# Disc length: 1779 seconds
#
# Revision: 0
# Processed by: cddbd v1.4PL0 Copyright (c) Steve Scherf et al.
# Submitted via: CDex 1.50Beta7
#
DISCID=4606f107
DTITLE=PR - PR Demo
DYEAR=1900
DGENRE=Jazz
TTITLE0=But Not The Armadillo
TTITLE1=Mind The Steps
TTITLE2=Letter To B.J.
TTITLE3=Pete's Bossa
TTITLE4=Some Sleep Would Be Nice
TTITLE5=The Fall Of Gil-Galad
TTITLE6=Little Bird (Song For Robyn)
EXTD=
EXTT0=
EXTT1=
EXTT2=
EXTT3=
EXTT4=
EXTT5=
EXTT6=
PLAYORDER=
